<svg width="333" height="336" viewBox="0 0 333 336" fill="none" xmlns="http://www.w3.org/2000/svg">
<g filter="url(#filter0_d_255_7235)">
<circle cx="142" cy="119" r="113" fill="#1765AC"/>
</g>
<path d="M123.25 86.5V85.7969H116.266V86.5C116.266 90.3672 112.211 94.75 102.016 95.7812L104.219 100.797C111.789 99.9766 116.969 97.2578 119.711 93.5078C122.477 97.2578 127.703 99.9766 135.25 100.797L137.547 95.7812C127.258 94.75 123.227 90.3672 123.25 86.5ZM100.141 107.547H139.375V102.156H100.141V107.547ZM104.594 128.266H135.719V123.203H111.25V121.188H134.688V109.656H104.594V114.625H127.984V116.5H104.594V128.266ZM180.859 105.766H141.625V111.156H180.859V105.766ZM145 92.1719H150.25V98.0312H145.328V103.375H177.062V98.0312H172.141V92.1719H177.391V86.8281H145V92.1719ZM146.125 128.031H176.172V113.922H146.125V128.031ZM152.734 122.641V119.172H169.609V122.641H152.734ZM157 98.0312V92.1719H165.344V98.0312H157Z" fill="white"/>
<path d="M108.961 143.688H106.742L103.945 145.469V147.547L106.539 145.922H106.602V155H108.961V143.688ZM115.961 155.156C118.516 155.164 120.25 153.516 120.242 151.219C120.25 149.086 118.734 147.562 116.695 147.562C115.445 147.562 114.328 148.148 113.805 149.156H113.695C113.711 146.93 114.516 145.547 116.055 145.547C116.969 145.547 117.617 146.039 117.805 146.828H120.117C119.891 144.969 118.328 143.531 116.055 143.531C113.227 143.531 111.406 145.789 111.398 149.609C111.391 153.75 113.625 155.148 115.961 155.156ZM113.93 151.281C113.945 150.18 114.82 149.273 115.977 149.266C117.125 149.273 117.961 150.148 117.961 151.281C117.961 152.422 117.109 153.305 115.945 153.297C114.789 153.305 113.945 152.391 113.93 151.281ZM133.352 142.219H131.367V156.438H133.352V142.219ZM121.461 152.422L121.727 154.047C124.258 154.055 127.609 154.023 130.727 153.484L130.586 152.016C129.445 152.164 128.25 152.258 127.055 152.312V151.18C128.617 150.891 129.633 149.922 129.633 148.594C129.633 147.008 128.164 145.922 126.055 145.922C123.961 145.922 122.516 147.008 122.523 148.594C122.516 149.93 123.531 150.898 125.086 151.18V152.383C123.789 152.414 122.547 152.414 121.461 152.422ZM121.742 145.359H130.383V143.797H127.07V142.281H125.086V143.797H121.742V145.359ZM124.414 148.594C124.406 147.859 125.086 147.445 126.055 147.438C127.055 147.445 127.727 147.859 127.727 148.594C127.727 149.344 127.055 149.75 126.055 149.75C125.086 149.75 124.406 149.344 124.414 148.594Z" fill="white"/>
<path d="M144.688 155.156C147.242 155.164 148.977 153.516 148.969 151.219C148.977 149.086 147.461 147.562 145.422 147.562C144.172 147.562 143.055 148.148 142.531 149.156H142.422C142.438 146.93 143.242 145.547 144.781 145.547C145.695 145.547 146.344 146.039 146.531 146.828H148.844C148.617 144.969 147.055 143.531 144.781 143.531C141.953 143.531 140.133 145.789 140.125 149.609C140.117 153.75 142.352 155.148 144.688 155.156ZM142.656 151.281C142.672 150.18 143.547 149.273 144.703 149.266C145.852 149.273 146.688 150.148 146.688 151.281C146.688 152.422 145.836 153.305 144.672 153.297C143.516 153.305 142.672 152.391 142.656 151.281ZM150.406 153H155.906V155H158.141V153H159.578V151.109H158.141V143.688H155.188L150.406 151.141V153ZM152.781 151.109V151.016L155.828 146.266H155.938V151.109H152.781ZM164.078 149.344C165.75 149.344 166.68 148.125 166.688 146.328C166.68 144.539 165.773 143.297 164.078 143.297C162.43 143.297 161.469 144.539 161.469 146.328C161.469 148.109 162.383 149.344 164.078 149.344ZM163.062 146.328C163.07 145.367 163.414 144.695 164.078 144.688C164.781 144.688 165.086 145.352 165.094 146.328C165.086 147.305 164.75 147.945 164.078 147.953C163.422 147.945 163.07 147.305 163.062 146.328ZM163.094 155H164.844L172.625 143.688H170.875L163.094 155ZM169.109 152.359C169.109 154.141 170.023 155.375 171.703 155.375C173.391 155.375 174.32 154.156 174.328 152.359C174.32 150.57 173.414 149.336 171.703 149.328C170.07 149.336 169.109 150.57 169.109 152.359ZM170.703 152.359C170.711 151.398 171.047 150.727 171.703 150.734C172.414 150.719 172.727 151.383 172.734 152.359C172.727 153.336 172.391 153.984 171.703 153.984C171.062 153.984 170.711 153.336 170.703 152.359Z" fill="white"/>
<g filter="url(#filter1_d_255_7235)">
<circle cx="68" cy="234" r="56" fill="url(#paint0_linear_255_7235)"/>
</g>
<path d="M67.4141 217.039H47.8203V219.781H55.8828V221.727H59.2578V219.781H67.4141V217.039ZM49.0391 226.625L50.1406 229.133C53.7969 228.828 56.2344 227.633 57.5352 226.016C58.8359 227.668 61.3203 228.828 65.0469 229.133L66.0781 226.625C61.0508 226.227 59.2812 224.41 59.2812 222.828V222.5H55.8125V222.828C55.8125 224.316 53.9492 226.227 49.0391 226.625ZM49.7188 212.07C49.707 214.637 52.8125 216.16 57.6172 216.172C62.4688 216.16 65.5039 214.637 65.5156 212.07C65.5039 209.457 62.4688 207.98 57.6172 207.969C52.8125 207.98 49.707 209.457 49.7188 212.07ZM53.2344 212.07C53.2109 210.98 54.7461 210.441 57.6172 210.453C60.4648 210.441 62.0234 210.98 62.0234 212.07C62.0234 213.078 60.4648 213.605 57.6172 213.617C54.7461 213.605 53.2109 213.078 53.2344 212.07ZM78.3594 208.109C73.5781 208.109 70.4492 209.727 70.4609 212.375C70.4492 214.988 73.5781 216.582 78.3594 216.57C83.1758 216.582 86.2461 214.988 86.2578 212.375C86.2461 209.727 83.1758 208.109 78.3594 208.109ZM68.5625 220.297H88.1797V217.625H68.5625V220.297ZM70.8125 229.016H85.8359V221.609H70.8125V229.016ZM73.9766 212.375C73.9531 211.25 75.5117 210.723 78.3594 210.734C81.1836 210.723 82.7656 211.25 82.7656 212.375C82.7656 213.453 81.1836 213.969 78.3594 213.969C75.5117 213.969 73.9531 213.453 73.9766 212.375ZM74.1172 226.32V224.258H82.5547V226.32H74.1172Z" fill="white"/>
<path d="M46.5547 252.156C49.1094 252.156 50.9453 250.766 50.9297 248.828C50.9453 247.414 50.0312 246.406 48.3672 246.203V246.109C49.6328 245.883 50.5156 244.984 50.5078 243.719C50.5156 241.93 48.9453 240.531 46.5859 240.531C44.2656 240.531 42.5156 241.883 42.4766 243.828H44.7266C44.7656 242.961 45.5859 242.398 46.5859 242.406C47.5859 242.398 48.25 242.992 48.2422 243.859C48.25 244.75 47.4688 245.359 46.3516 245.359H45.3047V247.094H46.3516C47.6797 247.102 48.5 247.75 48.4922 248.672C48.5 249.586 47.6953 250.211 46.5703 250.219C45.4766 250.211 44.6562 249.656 44.6172 248.812H42.2422C42.2891 250.789 44.0703 252.156 46.5547 252.156ZM64.0703 239.219H62.0859V253.438H64.0703V239.219ZM52.1797 249.422L52.4453 251.047C54.9766 251.055 58.3281 251.023 61.4453 250.484L61.3047 249.016C60.1641 249.164 58.9688 249.258 57.7734 249.312V248.18C59.3359 247.891 60.3516 246.922 60.3516 245.594C60.3516 244.008 58.8828 242.922 56.7734 242.922C54.6797 242.922 53.2344 244.008 53.2422 245.594C53.2344 246.93 54.25 247.898 55.8047 248.18V249.383C54.5078 249.414 53.2656 249.414 52.1797 249.422ZM52.4609 242.359H61.1016V240.797H57.7891V239.281H55.8047V240.797H52.4609V242.359ZM55.1328 245.594C55.125 244.859 55.8047 244.445 56.7734 244.438C57.7734 244.445 58.4453 244.859 58.4453 245.594C58.4453 246.344 57.7734 246.75 56.7734 246.75C55.8047 246.75 55.125 246.344 55.1328 245.594Z" fill="white"/>
<path d="M75.1953 240.531C72.6406 240.523 70.9141 242.18 70.9141 244.453C70.9297 246.562 72.4297 248.094 74.4609 248.094C75.7188 248.094 76.8359 247.5 77.3672 246.5H77.4609C77.4531 248.758 76.6406 250.141 75.1016 250.141C74.1953 250.141 73.5469 249.648 73.3516 248.812H71.0391C71.2656 250.727 72.8281 252.156 75.1016 252.156C77.9453 252.156 79.7656 249.891 79.7578 246.047C79.7578 241.938 77.5391 240.539 75.1953 240.531ZM73.2109 244.391C73.1953 243.266 74.0547 242.383 75.2109 242.375C76.3672 242.383 77.2109 243.297 77.2266 244.375C77.2266 245.461 76.3438 246.375 75.1953 246.375C74.0312 246.375 73.2109 245.508 73.2109 244.391ZM84.3203 246.344C85.9922 246.344 86.9219 245.125 86.9297 243.328C86.9219 241.539 86.0156 240.297 84.3203 240.297C82.6719 240.297 81.7109 241.539 81.7109 243.328C81.7109 245.109 82.625 246.344 84.3203 246.344ZM83.3047 243.328C83.3125 242.367 83.6562 241.695 84.3203 241.688C85.0234 241.688 85.3281 242.352 85.3359 243.328C85.3281 244.305 84.9922 244.945 84.3203 244.953C83.6641 244.945 83.3125 244.305 83.3047 243.328ZM83.3359 252H85.0859L92.8672 240.688H91.1172L83.3359 252ZM89.3516 249.359C89.3516 251.141 90.2656 252.375 91.9453 252.375C93.6328 252.375 94.5625 251.156 94.5703 249.359C94.5625 247.57 93.6562 246.336 91.9453 246.328C90.3125 246.336 89.3516 247.57 89.3516 249.359ZM90.9453 249.359C90.9531 248.398 91.2891 247.727 91.9453 247.734C92.6562 247.719 92.9688 248.383 92.9766 249.359C92.9688 250.336 92.6328 250.984 91.9453 250.984C91.3047 250.984 90.9531 250.336 90.9453 249.359Z" fill="white"/>
<g filter="url(#filter2_d_255_7235)">
<circle cx="168" cy="262" r="56" fill="url(#paint1_linear_255_7235)"/>
</g>
<path d="M159.375 237.633H148.828V252.211H159.375V237.633ZM152.203 249.539V240.258H156.094V249.539H152.203ZM162.492 257.297H165.891V235.734H162.492V257.297ZM188.227 252.07H179.953V247.336H176.602V252.07H168.562V254.766H188.227V252.07ZM168.938 245.344L170.367 248.156C174.211 247.488 176.859 245.531 178.254 242.988C179.66 245.543 182.332 247.477 186.211 248.156L187.641 245.344C182.344 244.57 180.059 241.301 180.07 238.383V236.906H176.461V238.383C176.438 241.254 174.164 244.57 168.938 245.344Z" fill="white"/>
<path d="M146.555 280.156C149.109 280.156 150.945 278.766 150.93 276.828C150.945 275.414 150.031 274.406 148.367 274.203V274.109C149.633 273.883 150.516 272.984 150.508 271.719C150.516 269.93 148.945 268.531 146.586 268.531C144.266 268.531 142.516 269.883 142.477 271.828H144.727C144.766 270.961 145.586 270.398 146.586 270.406C147.586 270.398 148.25 270.992 148.242 271.859C148.25 272.75 147.469 273.359 146.352 273.359H145.305V275.094H146.352C147.68 275.102 148.5 275.75 148.492 276.672C148.5 277.586 147.695 278.211 146.57 278.219C145.477 278.211 144.656 277.656 144.617 276.812H142.242C142.289 278.789 144.07 280.156 146.555 280.156ZM164.07 267.219H162.086V281.438H164.07V267.219ZM152.18 277.422L152.445 279.047C154.977 279.055 158.328 279.023 161.445 278.484L161.305 277.016C160.164 277.164 158.969 277.258 157.773 277.312V276.18C159.336 275.891 160.352 274.922 160.352 273.594C160.352 272.008 158.883 270.922 156.773 270.922C154.68 270.922 153.234 272.008 153.242 273.594C153.234 274.93 154.25 275.898 155.805 276.18V277.383C154.508 277.414 153.266 277.414 152.18 277.422ZM152.461 270.359H161.102V268.797H157.789V267.281H155.805V268.797H152.461V270.359ZM155.133 273.594C155.125 272.859 155.805 272.445 156.773 272.438C157.773 272.445 158.445 272.859 158.445 273.594C158.445 274.344 157.773 274.75 156.773 274.75C155.805 274.75 155.125 274.344 155.133 273.594Z" fill="white"/>
<path d="M175.195 268.531C172.641 268.523 170.914 270.18 170.914 272.453C170.93 274.562 172.43 276.094 174.461 276.094C175.719 276.094 176.836 275.5 177.367 274.5H177.461C177.453 276.758 176.641 278.141 175.102 278.141C174.195 278.141 173.547 277.648 173.352 276.812H171.039C171.266 278.727 172.828 280.156 175.102 280.156C177.945 280.156 179.766 277.891 179.758 274.047C179.758 269.938 177.539 268.539 175.195 268.531ZM173.211 272.391C173.195 271.266 174.055 270.383 175.211 270.375C176.367 270.383 177.211 271.297 177.227 272.375C177.227 273.461 176.344 274.375 175.195 274.375C174.031 274.375 173.211 273.508 173.211 272.391ZM184.32 274.344C185.992 274.344 186.922 273.125 186.93 271.328C186.922 269.539 186.016 268.297 184.32 268.297C182.672 268.297 181.711 269.539 181.711 271.328C181.711 273.109 182.625 274.344 184.32 274.344ZM183.305 271.328C183.312 270.367 183.656 269.695 184.32 269.688C185.023 269.688 185.328 270.352 185.336 271.328C185.328 272.305 184.992 272.945 184.32 272.953C183.664 272.945 183.312 272.305 183.305 271.328ZM183.336 280H185.086L192.867 268.688H191.117L183.336 280ZM189.352 277.359C189.352 279.141 190.266 280.375 191.945 280.375C193.633 280.375 194.562 279.156 194.57 277.359C194.562 275.57 193.656 274.336 191.945 274.328C190.312 274.336 189.352 275.57 189.352 277.359ZM190.945 277.359C190.953 276.398 191.289 275.727 191.945 275.734C192.656 275.719 192.969 276.383 192.977 277.359C192.969 278.336 192.633 278.984 191.945 278.984C191.305 278.984 190.953 278.336 190.945 277.359Z" fill="white"/>
<g filter="url(#filter3_d_255_7235)">
<circle cx="257" cy="199" r="64" fill="url(#paint2_linear_255_7235)"/>
</g>
<path d="M246.59 184.617H226.926V187.312H235.012V194.203H238.363V187.312H246.59V184.617ZM229.176 182.508H244.316V173.742H229.176V182.508ZM232.48 179.859V176.414H240.941V179.859H232.48ZM267.355 189.258H262.598V185.508H265.668V182.812H262.879V177.07H265.785V174.375H249.168V177.07H252.004V182.812H249.262V185.508H252.379V189.258H247.691V191.953H267.355V189.258ZM255.379 182.812V177.07H259.551V182.812H255.379ZM255.754 189.258V185.508H259.199V189.258H255.754ZM286.645 172.734H283.293V177.867H280.246V180.586H283.293V185.508H286.645V172.734ZM268.223 182.906L269.98 185.578C272.5 184.734 274.152 183.059 275.09 180.984C276.027 182.812 277.598 184.289 279.941 185.039L281.582 182.391C278.324 181.312 276.941 178.969 276.777 176.648H280.855V173.953H269.184V176.648H273.297C273.133 179.156 271.703 181.77 268.223 182.906ZM271.785 190.102C271.785 192.738 274.621 194.285 279.215 194.297C283.867 194.285 286.703 192.738 286.715 190.102C286.703 187.465 283.867 185.918 279.215 185.906C274.621 185.918 271.785 187.465 271.785 190.102ZM275.137 190.102C275.137 188.965 276.531 188.461 279.215 188.461C281.957 188.461 283.34 188.965 283.363 190.102C283.34 191.215 281.957 191.73 279.215 191.719C276.531 191.73 275.137 191.215 275.137 190.102Z" fill="white"/>
<path d="M235.711 217.156C238.266 217.164 240 215.516 239.992 213.219C240 211.086 238.484 209.562 236.445 209.562C235.195 209.562 234.078 210.148 233.555 211.156H233.445C233.461 208.93 234.266 207.547 235.805 207.547C236.719 207.547 237.367 208.039 237.555 208.828H239.867C239.641 206.969 238.078 205.531 235.805 205.531C232.977 205.531 231.156 207.789 231.148 211.609C231.141 215.75 233.375 217.148 235.711 217.156ZM233.68 213.281C233.695 212.18 234.57 211.273 235.727 211.266C236.875 211.273 237.711 212.148 237.711 213.281C237.711 214.422 236.859 215.305 235.695 215.297C234.539 215.305 233.695 214.391 233.68 213.281ZM253.102 204.219H251.117V218.438H253.102V204.219ZM241.211 214.422L241.477 216.047C244.008 216.055 247.359 216.023 250.477 215.484L250.336 214.016C249.195 214.164 248 214.258 246.805 214.312V213.18C248.367 212.891 249.383 211.922 249.383 210.594C249.383 209.008 247.914 207.922 245.805 207.922C243.711 207.922 242.266 209.008 242.273 210.594C242.266 211.93 243.281 212.898 244.836 213.18V214.383C243.539 214.414 242.297 214.414 241.211 214.422ZM241.492 207.359H250.133V205.797H246.82V204.281H244.836V205.797H241.492V207.359ZM244.164 210.594C244.156 209.859 244.836 209.445 245.805 209.438C246.805 209.445 247.477 209.859 247.477 210.594C247.477 211.344 246.805 211.75 245.805 211.75C244.836 211.75 244.156 211.344 244.164 210.594Z" fill="white"/>
<path d="M261.188 205.688H258.969L256.172 207.469V209.547L258.766 207.922H258.828V217H261.188V205.688ZM268.062 217.156C270.641 217.156 272.5 215.797 272.5 213.953C272.5 212.531 271.391 211.375 270.016 211.156V211.078C271.203 210.844 272.07 209.82 272.078 208.578C272.07 206.82 270.375 205.531 268.062 205.531C265.75 205.531 264.055 206.82 264.062 208.578C264.055 209.82 264.898 210.844 266.125 211.078V211.156C264.719 211.375 263.625 212.531 263.625 213.953C263.625 215.797 265.477 217.156 268.062 217.156ZM266.078 213.719C266.07 212.734 266.914 212.023 268.062 212.016C269.211 212.023 270.055 212.742 270.047 213.719C270.055 214.688 269.258 215.367 268.062 215.359C266.867 215.367 266.07 214.688 266.078 213.719ZM266.359 208.812C266.352 207.93 267.047 207.312 268.062 207.312C269.07 207.312 269.773 207.93 269.781 208.812C269.773 209.719 269.055 210.352 268.062 210.359C267.062 210.352 266.352 209.719 266.359 208.812ZM277.078 211.344C278.75 211.344 279.68 210.125 279.688 208.328C279.68 206.539 278.773 205.297 277.078 205.297C275.43 205.297 274.469 206.539 274.469 208.328C274.469 210.109 275.383 211.344 277.078 211.344ZM276.062 208.328C276.07 207.367 276.414 206.695 277.078 206.688C277.781 206.688 278.086 207.352 278.094 208.328C278.086 209.305 277.75 209.945 277.078 209.953C276.422 209.945 276.07 209.305 276.062 208.328ZM276.094 217H277.844L285.625 205.688H283.875L276.094 217ZM282.109 214.359C282.109 216.141 283.023 217.375 284.703 217.375C286.391 217.375 287.32 216.156 287.328 214.359C287.32 212.57 286.414 211.336 284.703 211.328C283.07 211.336 282.109 212.57 282.109 214.359ZM283.703 214.359C283.711 213.398 284.047 212.727 284.703 212.734C285.414 212.719 285.727 213.383 285.734 214.359C285.727 215.336 285.391 215.984 284.703 215.984C284.062 215.984 283.711 215.336 283.703 214.359Z" fill="white"/>
<defs>
<filter id="filter0_d_255_7235" x="17" y="0" width="250" height="250" filterUnits="userSpaceOnUse" color-interpolation-filters="sRGB">
<feFlood flood-opacity="0" result="BackgroundImageFix"/>
<feColorMatrix in="SourceAlpha" type="matrix" values="0 0 0 0 0 0 0 0 0 0 0 0 0 0 0 0 0 0 127 0" result="hardAlpha"/>
<feOffset dy="6"/>
<feGaussianBlur stdDeviation="6"/>
<feComposite in2="hardAlpha" operator="out"/>
<feColorMatrix type="matrix" values="0 0 0 0 0 0 0 0 0 0 0 0 0 0 0 0 0 0 0.4 0"/>
<feBlend mode="normal" in2="BackgroundImageFix" result="effect1_dropShadow_255_7235"/>
<feBlend mode="normal" in="SourceGraphic" in2="effect1_dropShadow_255_7235" result="shape"/>
</filter>
<filter id="filter1_d_255_7235" x="0" y="172" width="136" height="136" filterUnits="userSpaceOnUse" color-interpolation-filters="sRGB">
<feFlood flood-opacity="0" result="BackgroundImageFix"/>
<feColorMatrix in="SourceAlpha" type="matrix" values="0 0 0 0 0 0 0 0 0 0 0 0 0 0 0 0 0 0 127 0" result="hardAlpha"/>
<feOffset dy="6"/>
<feGaussianBlur stdDeviation="6"/>
<feComposite in2="hardAlpha" operator="out"/>
<feColorMatrix type="matrix" values="0 0 0 0 0 0 0 0 0 0 0 0 0 0 0 0 0 0 0.6 0"/>
<feBlend mode="normal" in2="BackgroundImageFix" result="effect1_dropShadow_255_7235"/>
<feBlend mode="normal" in="SourceGraphic" in2="effect1_dropShadow_255_7235" result="shape"/>
</filter>
<filter id="filter2_d_255_7235" x="100" y="200" width="136" height="136" filterUnits="userSpaceOnUse" color-interpolation-filters="sRGB">
<feFlood flood-opacity="0" result="BackgroundImageFix"/>
<feColorMatrix in="SourceAlpha" type="matrix" values="0 0 0 0 0 0 0 0 0 0 0 0 0 0 0 0 0 0 127 0" result="hardAlpha"/>
<feOffset dy="6"/>
<feGaussianBlur stdDeviation="6"/>
<feComposite in2="hardAlpha" operator="out"/>
<feColorMatrix type="matrix" values="0 0 0 0 0 0 0 0 0 0 0 0 0 0 0 0 0 0 0.6 0"/>
<feBlend mode="normal" in2="BackgroundImageFix" result="effect1_dropShadow_255_7235"/>
<feBlend mode="normal" in="SourceGraphic" in2="effect1_dropShadow_255_7235" result="shape"/>
</filter>
<filter id="filter3_d_255_7235" x="181" y="129" width="152" height="152" filterUnits="userSpaceOnUse" color-interpolation-filters="sRGB">
<feFlood flood-opacity="0" result="BackgroundImageFix"/>
<feColorMatrix in="SourceAlpha" type="matrix" values="0 0 0 0 0 0 0 0 0 0 0 0 0 0 0 0 0 0 127 0" result="hardAlpha"/>
<feOffset dy="6"/>
<feGaussianBlur stdDeviation="6"/>
<feComposite in2="hardAlpha" operator="out"/>
<feColorMatrix type="matrix" values="0 0 0 0 0 0 0 0 0 0 0 0 0 0 0 0 0 0 0.6 0"/>
<feBlend mode="normal" in2="BackgroundImageFix" result="effect1_dropShadow_255_7235"/>
<feBlend mode="normal" in="SourceGraphic" in2="effect1_dropShadow_255_7235" result="shape"/>
</filter>
<linearGradient id="paint0_linear_255_7235" x1="111.077" y1="269.179" x2="14.8718" y2="199.538" gradientUnits="userSpaceOnUse">
<stop stop-color="#F49339"/>
<stop offset="0.0001" stop-color="#F49339"/>
<stop offset="0.744792" stop-color="#EEB988"/>
<stop offset="1" stop-color="white"/>
</linearGradient>
<linearGradient id="paint1_linear_255_7235" x1="211.077" y1="297.179" x2="114.872" y2="227.538" gradientUnits="userSpaceOnUse">
<stop stop-color="#F49339"/>
<stop offset="0.0001" stop-color="#F49339"/>
<stop offset="0.744792" stop-color="#EEB988"/>
<stop offset="1" stop-color="white"/>
</linearGradient>
<linearGradient id="paint2_linear_255_7235" x1="222.217" y1="250.478" x2="321" y2="148.913" gradientUnits="userSpaceOnUse">
<stop stop-color="#F49339"/>
<stop offset="0.65625" stop-color="#E3AB77"/>
<stop offset="1" stop-color="white"/>
</linearGradient>
</defs>
</svg>
