<svg width="36" height="36" viewBox="0 0 36 36" fill="none" xmlns="http://www.w3.org/2000/svg">
<g clip-path="url(#clip0_186_7013)">
<path d="M20.715 4.29001C20.97 3.84001 20.715 3.24001 20.19 3.18001C16.26 2.62501 12.24 3.60001 9.03 5.97001C8.745 6.19501 8.655 6.61501 8.85 6.94501L13.365 14.775C13.65 15.27 14.37 15.27 14.67 14.775L20.715 4.29001ZM31.95 12.495C30.48 8.79001 27.57 5.80501 23.925 4.24501C23.58 4.09501 23.175 4.24501 22.98 4.57501L18.465 12.39C18.18 12.87 18.54 13.5 19.125 13.5H31.245C31.77 13.5 32.145 12.975 31.95 12.495ZM32.055 15H22.755C22.185 15 21.81 15.63 22.11 16.125L28.5 27.21C28.755 27.66 29.4 27.735 29.73 27.33C32.34 24.06 33.45 19.785 32.805 15.645C32.76 15.27 32.43 15 32.055 15ZM6.27 8.68501C3.675 11.97 2.55 16.215 3.195 20.37C3.24 20.73 3.57 21 3.945 21H13.245C13.815 21 14.19 20.37 13.89 19.875L7.5 8.80501C7.23 8.35501 6.585 8.28001 6.27 8.68501ZM4.05 23.505C5.52 27.21 8.43 30.195 12.075 31.755C12.42 31.905 12.825 31.755 13.02 31.425L17.535 23.61C17.82 23.115 17.46 22.485 16.89 22.485H4.755C4.23 22.5 3.855 23.025 4.05 23.505ZM15.795 32.835C19.725 33.39 23.745 32.415 26.955 30.045C27.255 29.82 27.345 29.385 27.15 29.055L22.635 21.225C22.35 20.73 21.63 20.73 21.33 21.225L15.27 31.71C15.015 32.16 15.285 32.76 15.795 32.835Z" fill="white"/>
</g>
<defs>
<clipPath id="clip0_186_7013">
<rect width="36" height="36" fill="white"/>
</clipPath>
</defs>
</svg>
