<svg width="36" height="36" viewBox="0 0 36 36" fill="none" xmlns="http://www.w3.org/2000/svg">
<g clip-path="url(#clip0_186_7010)">
<path d="M31.5 28.5V7.5C31.5 5.85 30.15 4.5 28.5 4.5H7.5C5.85 4.5 4.5 5.85 4.5 7.5V28.5C4.5 30.15 5.85 31.5 7.5 31.5H28.5C30.15 31.5 31.5 30.15 31.5 28.5ZM13.35 20.97L16.5 24.765L21.15 18.78C21.45 18.39 22.05 18.39 22.35 18.795L27.615 25.815C27.99 26.31 27.63 27.015 27.015 27.015H9.03C8.4 27.015 8.055 26.295 8.445 25.8L12.18 21C12.465 20.61 13.035 20.595 13.35 20.97V20.97Z" fill="white"/>
</g>
<defs>
<clipPath id="clip0_186_7010">
<rect width="36" height="36" fill="white"/>
</clipPath>
</defs>
</svg>
